<svg xmlns="http://www.w3.org/2000/svg" xmlns:xlink="http://www.w3.org/1999/xlink" width="340" zoomAndPan="magnify" viewBox="0 0 255 254.999992" height="340" preserveAspectRatio="xMidYMid meet" version="1.0"><defs><clipPath id="64d6e3e8de"><path d="M 30.339844 25.535156 L 223.253906 25.535156 L 223.253906 218.449219 L 30.339844 218.449219 Z M 30.339844 25.535156 " clip-rule="nonzero"/></clipPath></defs><g clip-path="url(#64d6e3e8de)"><path fill="#423e3a" d="M 176.183594 163.585938 L 176.183594 125.8125 L 215.382812 125.8125 C 213.53125 146.261719 196.824219 162.464844 176.183594 163.585938 Z M 130.617188 210.578125 L 130.617188 171.378906 L 168.390625 171.378906 C 167.269531 192.019531 151.066406 208.726562 130.617188 210.578125 Z M 85.167969 171.378906 L 122.9375 171.378906 L 122.9375 210.578125 C 102.527344 208.726562 86.324219 192.019531 85.167969 171.378906 Z M 38.210938 125.8125 L 77.410156 125.8125 L 77.410156 163.585938 C 56.769531 162.464844 40.0625 146.261719 38.210938 125.8125 Z M 77.410156 80.363281 L 77.410156 118.132812 L 38.210938 118.132812 C 40.0625 97.726562 56.769531 81.519531 77.410156 80.363281 Z M 122.976562 33.40625 L 122.976562 72.605469 L 85.203125 72.605469 C 86.324219 51.964844 102.527344 35.257812 122.976562 33.40625 Z M 168.390625 72.605469 L 130.617188 72.605469 L 130.617188 33.40625 C 151.066406 35.257812 167.269531 51.964844 168.390625 72.605469 Z M 158.667969 118.171875 C 154.304688 116.898438 148.054688 114.277344 142.269531 108.953125 C 135.363281 102.585938 132.160156 95.292969 130.65625 90.160156 L 130.65625 80.324219 L 168.542969 80.324219 L 168.542969 118.210938 L 158.667969 118.210938 Z M 126.875 142.402344 C 124.828125 138.3125 121.898438 133.953125 117.652344 129.863281 C 114.140625 126.46875 110.4375 124 106.964844 122.183594 C 111.210938 120.140625 115.800781 117.09375 120.003906 112.539062 C 123.246094 109.027344 125.5625 105.324219 127.183594 101.8125 C 129.421875 105.980469 132.585938 110.457031 137.058594 114.546875 C 140.183594 117.4375 143.734375 119.910156 147.515625 121.875 C 143.464844 123.921875 139.144531 126.816406 135.09375 130.980469 C 131.464844 134.765625 128.804688 138.699219 126.875 142.402344 Z M 85.050781 80.246094 L 122.9375 80.246094 L 122.9375 90.277344 C 122.011719 94.832031 119.8125 101.351562 114.296875 107.371094 C 107.546875 114.699219 99.480469 117.285156 95.042969 118.171875 L 85.011719 118.171875 L 85.011719 80.246094 Z M 85.050781 125.8125 L 95.003906 125.8125 C 99.636719 126.96875 106.308594 129.554688 112.367188 135.378906 C 119.234375 141.976562 121.933594 149.578125 122.976562 153.785156 L 122.976562 163.699219 L 85.089844 163.699219 L 85.089844 125.8125 Z M 168.542969 163.738281 L 130.65625 163.738281 L 130.65625 153.863281 C 131.929688 149.191406 134.667969 142.480469 140.609375 136.421875 C 146.820312 130.054688 153.765625 127.199219 158.628906 125.890625 L 168.503906 125.890625 L 168.503906 163.738281 Z M 215.382812 118.171875 L 176.183594 118.171875 L 176.183594 80.402344 C 196.824219 81.519531 213.53125 97.726562 215.382812 118.171875 Z M 223.253906 121.992188 C 223.253906 95.488281 202.265625 73.878906 176.066406 72.722656 C 174.910156 46.523438 153.265625 25.535156 126.796875 25.535156 C 100.328125 25.535156 78.683594 46.523438 77.527344 72.722656 C 51.328125 73.878906 30.339844 95.488281 30.339844 121.992188 C 30.339844 148.5 51.328125 170.105469 77.527344 171.261719 C 78.683594 197.460938 100.328125 218.449219 126.796875 218.449219 C 153.265625 218.449219 174.910156 197.460938 176.066406 171.261719 C 202.265625 170.105469 223.253906 148.460938 223.253906 121.992188 " fill-opacity="1" fill-rule="nonzero"/></g></svg>